# xmcd
#
# Track frame offsets:
#	150
#	17295
#	33548
#	49540
#	63652
#	79893
#	91899
#	107147
#	118868
#	131469
#	144391
#	153232
#	169646
#	179972
#	191886
#	202742
#
# Disc length: 2837 seconds
#
# Revision: 1
# Processed by: cddbd v1.5.2PL0 Copyright (c) Steve Scherf et al.
# Submitted via: audiograbber 1.83.01
#
DISCID=d80b1310
DTITLE=Robin Evans - Five Years Ago
DYEAR=2011
DGENRE=Country
TTITLE0=Ashokan Farewell
TTITLE1=Crazy Arms
TTITLE2=Faded Love
TTITLE3=Maple Sugar
TTITLE4=I Love You Because
TTITLE5=Red Wing
TTITLE6=River John Sunset Waltz
TTITLE7=San Antonio Rose
TTITLE8=I Fall to Pieces
TTITLE9=Snow Deer
TTITLE10=St. Anne's Reel
TTITLE11=Born to Lose
TTITLE12=Stone's Rag
TTITLE13=Tennessee Waltz
TTITLE14=Turkey in the Straw
TTITLE15=When the Saints Go Marching In
EXTD=
EXTT0=
EXTT1=
EXTT2=
EXTT3=
EXTT4=
EXTT5=
EXTT6=
EXTT7=
EXTT8=
EXTT9=
EXTT10=
EXTT11=
EXTT12=
EXTT13=
EXTT14=
EXTT15=
PLAYORDER=
